# xmcd
#
# Track frame offsets:
# 150
# 16072
# 29900
# 45355
# 62487
# 76442
# 92707
# 108120
# 121552
# 137325
# 152577
# 166377
# 180305
# 195045
#
# Disc length: 2822 seconds
#
#
# Revision: 0
# Processed by: cddbd v1.5PL3 Copyright (c) Steve Scherf et al.
# Submitted via: FreeRIP 2.70 
#
DISCID=940b040e
DTITLE=E O TCHAN - E O TCHAN DO BRASIL
DYEAR=1900
DGENRE=Samba
TTITLE0=Ralando o tchan a dança do ventre
TTITLE1=Bambole
TTITLE2=Mão boba
TTITLE3=Nega va
TTITLE4=Roque do Tchan
TTITLE5=Tres, tres passara
TTITLE6=Dança do poe, poe
TTITLE7=Disque Tchan
TTITLE8=Pot-Pourri (Sambas Bahia)
TTITLE9=I love you
TTITLE10=De bem com a vida
TTITLE11=Arrasta-pe
TTITLE12=Simbora nenem
TTITLE13=Tarde de Domingo
EXTD=
EXTT0=
EXTT1=
EXTT2=
EXTT3=
EXTT4=
EXTT5=
EXTT6=
EXTT7=
EXTT8=
EXTT9=
EXTT10=
EXTT11=
EXTT12=
EXTT13=
PLAYORDER=
